<svg width="309" height="310" viewBox="0 0 309 310" fill="none" xmlns="http://www.w3.org/2000/svg">
<circle cx="4.09808" cy="194.972" r="3" transform="rotate(-60 4.09808 194.972)" fill="#F1F1F1"/>
<circle cx="15.0981" cy="175.919" r="3" transform="rotate(-60 15.0981 175.919)" fill="#F1F1F1"/>
<circle cx="26.0981" cy="156.866" r="3" transform="rotate(-60 26.0981 156.866)" fill="#F1F1F1"/>
<circle cx="37.0981" cy="137.814" r="3" transform="rotate(-60 37.0981 137.814)" fill="#F1F1F1"/>
<circle cx="48.0981" cy="118.761" r="3" transform="rotate(-60 48.0981 118.761)" fill="#F1F1F1"/>
<circle cx="59.0981" cy="99.7087" r="3" transform="rotate(-60 59.0981 99.7087)" fill="#F1F1F1"/>
<circle cx="70.0981" cy="80.6562" r="3" transform="rotate(-60 70.0981 80.6562)" fill="#F1F1F1"/>
<circle cx="81.0981" cy="61.6036" r="3" transform="rotate(-60 81.0981 61.6036)" fill="#F1F1F1"/>
<circle cx="92.0981" cy="42.5511" r="3" transform="rotate(-60 92.0981 42.5511)" fill="#F1F1F1"/>
<circle cx="103.098" cy="23.4985" r="3" transform="rotate(-60 103.098 23.4985)" fill="#F1F1F1"/>
<circle cx="114.098" cy="4.44593" r="3" transform="rotate(-60 114.098 4.44593)" fill="#F1F1F1"/>
<circle cx="23.1506" cy="205.972" r="3" transform="rotate(-60 23.1506 205.972)" fill="#F1F1F1"/>
<circle cx="34.1506" cy="186.919" r="3" transform="rotate(-60 34.1506 186.919)" fill="#F1F1F1"/>
<circle cx="45.1506" cy="167.866" r="3" transform="rotate(-60 45.1506 167.866)" fill="#F1F1F1"/>
<circle cx="56.1506" cy="148.814" r="3" transform="rotate(-60 56.1506 148.814)" fill="#F1F1F1"/>
<circle cx="67.1506" cy="129.761" r="3" transform="rotate(-60 67.1506 129.761)" fill="#F1F1F1"/>
<circle cx="78.1506" cy="110.709" r="3" transform="rotate(-60 78.1506 110.709)" fill="#F1F1F1"/>
<circle cx="89.1506" cy="91.6562" r="3" transform="rotate(-60 89.1506 91.6562)" fill="#F1F1F1"/>
<circle cx="100.151" cy="72.6036" r="3" transform="rotate(-60 100.151 72.6036)" fill="#F1F1F1"/>
<circle cx="111.151" cy="53.551" r="3" transform="rotate(-60 111.151 53.551)" fill="#F1F1F1"/>
<circle cx="122.151" cy="34.4985" r="3" transform="rotate(-60 122.151 34.4985)" fill="#F1F1F1"/>
<circle cx="133.151" cy="15.4459" r="3" transform="rotate(-60 133.151 15.4459)" fill="#F1F1F1"/>
<circle cx="42.2032" cy="216.972" r="3" transform="rotate(-60 42.2032 216.972)" fill="#F1F1F1"/>
<circle cx="53.2032" cy="197.919" r="3" transform="rotate(-60 53.2032 197.919)" fill="#F1F1F1"/>
<circle cx="64.2032" cy="178.866" r="3" transform="rotate(-60 64.2032 178.866)" fill="#F1F1F1"/>
<circle cx="75.2032" cy="159.814" r="3" transform="rotate(-60 75.2032 159.814)" fill="#F1F1F1"/>
<circle cx="86.2032" cy="140.761" r="3" transform="rotate(-60 86.2032 140.761)" fill="#F1F1F1"/>
<circle cx="97.2032" cy="121.709" r="3" transform="rotate(-60 97.2032 121.709)" fill="#F1F1F1"/>
<circle cx="108.203" cy="102.656" r="3" transform="rotate(-60 108.203 102.656)" fill="#F1F1F1"/>
<circle cx="119.203" cy="83.6036" r="3" transform="rotate(-60 119.203 83.6036)" fill="#F1F1F1"/>
<circle cx="130.203" cy="64.551" r="3" transform="rotate(-60 130.203 64.551)" fill="#F1F1F1"/>
<circle cx="141.203" cy="45.4985" r="3" transform="rotate(-60 141.203 45.4985)" fill="#F1F1F1"/>
<circle cx="152.203" cy="26.4459" r="3" transform="rotate(-60 152.203 26.4459)" fill="#F1F1F1"/>
<circle cx="61.2557" cy="227.972" r="3" transform="rotate(-60 61.2557 227.972)" fill="#F1F1F1"/>
<circle cx="72.2557" cy="208.919" r="3" transform="rotate(-60 72.2557 208.919)" fill="#F1F1F1"/>
<circle cx="83.2557" cy="189.866" r="3" transform="rotate(-60 83.2557 189.866)" fill="#F1F1F1"/>
<circle cx="94.2557" cy="170.814" r="3" transform="rotate(-60 94.2557 170.814)" fill="#F1F1F1"/>
<circle cx="105.256" cy="151.761" r="3" transform="rotate(-60 105.256 151.761)" fill="#F1F1F1"/>
<circle cx="116.256" cy="132.709" r="3" transform="rotate(-60 116.256 132.709)" fill="#F1F1F1"/>
<circle cx="127.256" cy="113.656" r="3" transform="rotate(-60 127.256 113.656)" fill="#F1F1F1"/>
<circle cx="138.256" cy="94.6036" r="3" transform="rotate(-60 138.256 94.6036)" fill="#F1F1F1"/>
<circle cx="149.256" cy="75.551" r="3" transform="rotate(-60 149.256 75.551)" fill="#F1F1F1"/>
<circle cx="160.256" cy="56.4985" r="3" transform="rotate(-60 160.256 56.4985)" fill="#F1F1F1"/>
<circle cx="171.256" cy="37.4459" r="3" transform="rotate(-60 171.256 37.4459)" fill="#F1F1F1"/>
<circle cx="80.3083" cy="238.972" r="3" transform="rotate(-60 80.3083 238.972)" fill="#F1F1F1"/>
<circle cx="91.3083" cy="219.919" r="3" transform="rotate(-60 91.3083 219.919)" fill="#F1F1F1"/>
<circle cx="102.308" cy="200.866" r="3" transform="rotate(-60 102.308 200.866)" fill="#F1F1F1"/>
<circle cx="113.308" cy="181.814" r="3" transform="rotate(-60 113.308 181.814)" fill="#F1F1F1"/>
<circle cx="124.308" cy="162.761" r="3" transform="rotate(-60 124.308 162.761)" fill="#F1F1F1"/>
<circle cx="135.308" cy="143.709" r="3" transform="rotate(-60 135.308 143.709)" fill="#F1F1F1"/>
<circle cx="146.308" cy="124.656" r="3" transform="rotate(-60 146.308 124.656)" fill="#F1F1F1"/>
<circle cx="157.308" cy="105.604" r="3" transform="rotate(-60 157.308 105.604)" fill="#F1F1F1"/>
<circle cx="168.308" cy="86.551" r="3" transform="rotate(-60 168.308 86.551)" fill="#F1F1F1"/>
<circle cx="179.308" cy="67.4985" r="3" transform="rotate(-60 179.308 67.4985)" fill="#F1F1F1"/>
<circle cx="190.308" cy="48.4459" r="3" transform="rotate(-60 190.308 48.4459)" fill="#F1F1F1"/>
<circle cx="99.3609" cy="249.972" r="3" transform="rotate(-60 99.3609 249.972)" fill="#F1F1F1"/>
<circle cx="110.361" cy="230.919" r="3" transform="rotate(-60 110.361 230.919)" fill="#F1F1F1"/>
<circle cx="121.361" cy="211.866" r="3" transform="rotate(-60 121.361 211.866)" fill="#F1F1F1"/>
<circle cx="132.361" cy="192.814" r="3" transform="rotate(-60 132.361 192.814)" fill="#F1F1F1"/>
<circle cx="143.361" cy="173.761" r="3" transform="rotate(-60 143.361 173.761)" fill="#F1F1F1"/>
<circle cx="154.361" cy="154.709" r="3" transform="rotate(-60 154.361 154.709)" fill="#F1F1F1"/>
<circle cx="165.361" cy="135.656" r="3" transform="rotate(-60 165.361 135.656)" fill="#F1F1F1"/>
<circle cx="176.361" cy="116.604" r="3" transform="rotate(-60 176.361 116.604)" fill="#F1F1F1"/>
<circle cx="187.361" cy="97.551" r="3" transform="rotate(-60 187.361 97.551)" fill="#F1F1F1"/>
<circle cx="198.361" cy="78.4985" r="3" transform="rotate(-60 198.361 78.4985)" fill="#F1F1F1"/>
<circle cx="209.361" cy="59.4459" r="3" transform="rotate(-60 209.361 59.4459)" fill="#F1F1F1"/>
<circle cx="118.413" cy="260.972" r="3" transform="rotate(-60 118.413 260.972)" fill="#F1F1F1"/>
<circle cx="129.413" cy="241.919" r="3" transform="rotate(-60 129.413 241.919)" fill="#F1F1F1"/>
<circle cx="140.413" cy="222.866" r="3" transform="rotate(-60 140.413 222.866)" fill="#F1F1F1"/>
<circle cx="151.413" cy="203.814" r="3" transform="rotate(-60 151.413 203.814)" fill="#F1F1F1"/>
<circle cx="162.413" cy="184.761" r="3" transform="rotate(-60 162.413 184.761)" fill="#F1F1F1"/>
<circle cx="173.413" cy="165.709" r="3" transform="rotate(-60 173.413 165.709)" fill="#F1F1F1"/>
<circle cx="184.413" cy="146.656" r="3" transform="rotate(-60 184.413 146.656)" fill="#F1F1F1"/>
<circle cx="195.413" cy="127.604" r="3" transform="rotate(-60 195.413 127.604)" fill="#F1F1F1"/>
<circle cx="206.413" cy="108.551" r="3" transform="rotate(-60 206.413 108.551)" fill="#F1F1F1"/>
<circle cx="217.413" cy="89.4985" r="3" transform="rotate(-60 217.413 89.4985)" fill="#F1F1F1"/>
<circle cx="228.413" cy="70.4459" r="3" transform="rotate(-60 228.413 70.4459)" fill="#F1F1F1"/>
<circle cx="137.466" cy="271.972" r="3" transform="rotate(-60 137.466 271.972)" fill="#F1F1F1"/>
<circle cx="148.466" cy="252.919" r="3" transform="rotate(-60 148.466 252.919)" fill="#F1F1F1"/>
<circle cx="159.466" cy="233.866" r="3" transform="rotate(-60 159.466 233.866)" fill="#F1F1F1"/>
<circle cx="170.466" cy="214.814" r="3" transform="rotate(-60 170.466 214.814)" fill="#F1F1F1"/>
<circle cx="181.466" cy="195.761" r="3" transform="rotate(-60 181.466 195.761)" fill="#F1F1F1"/>
<circle cx="192.466" cy="176.709" r="3" transform="rotate(-60 192.466 176.709)" fill="#F1F1F1"/>
<circle cx="203.466" cy="157.656" r="3" transform="rotate(-60 203.466 157.656)" fill="#F1F1F1"/>
<circle cx="214.466" cy="138.604" r="3" transform="rotate(-60 214.466 138.604)" fill="#F1F1F1"/>
<circle cx="225.466" cy="119.551" r="3" transform="rotate(-60 225.466 119.551)" fill="#F1F1F1"/>
<circle cx="236.466" cy="100.498" r="3" transform="rotate(-60 236.466 100.498)" fill="#F1F1F1"/>
<circle cx="247.466" cy="81.4459" r="3" transform="rotate(-60 247.466 81.4459)" fill="#F1F1F1"/>
<circle cx="156.519" cy="282.972" r="3" transform="rotate(-60 156.519 282.972)" fill="#F1F1F1"/>
<circle cx="167.519" cy="263.919" r="3" transform="rotate(-60 167.519 263.919)" fill="#F1F1F1"/>
<circle cx="178.519" cy="244.866" r="3" transform="rotate(-60 178.519 244.866)" fill="#F1F1F1"/>
<circle cx="189.519" cy="225.814" r="3" transform="rotate(-60 189.519 225.814)" fill="#F1F1F1"/>
<circle cx="200.519" cy="206.761" r="3" transform="rotate(-60 200.519 206.761)" fill="#F1F1F1"/>
<circle cx="211.519" cy="187.709" r="3" transform="rotate(-60 211.519 187.709)" fill="#F1F1F1"/>
<circle cx="222.519" cy="168.656" r="3" transform="rotate(-60 222.519 168.656)" fill="#F1F1F1"/>
<circle cx="233.519" cy="149.604" r="3" transform="rotate(-60 233.519 149.604)" fill="#F1F1F1"/>
<circle cx="244.519" cy="130.551" r="3" transform="rotate(-60 244.519 130.551)" fill="#F1F1F1"/>
<circle cx="255.519" cy="111.498" r="3" transform="rotate(-60 255.519 111.498)" fill="#F1F1F1"/>
<circle cx="266.519" cy="92.4459" r="3" transform="rotate(-60 266.519 92.4459)" fill="#F1F1F1"/>
<circle cx="175.571" cy="293.972" r="3" transform="rotate(-60 175.571 293.972)" fill="#F1F1F1"/>
<circle cx="186.571" cy="274.919" r="3" transform="rotate(-60 186.571 274.919)" fill="#F1F1F1"/>
<circle cx="197.571" cy="255.866" r="3" transform="rotate(-60 197.571 255.866)" fill="#F1F1F1"/>
<circle cx="208.571" cy="236.814" r="3" transform="rotate(-60 208.571 236.814)" fill="#F1F1F1"/>
<circle cx="219.571" cy="217.761" r="3" transform="rotate(-60 219.571 217.761)" fill="#F1F1F1"/>
<circle cx="230.571" cy="198.709" r="3" transform="rotate(-60 230.571 198.709)" fill="#F1F1F1"/>
<circle cx="241.571" cy="179.656" r="3" transform="rotate(-60 241.571 179.656)" fill="#F1F1F1"/>
<circle cx="252.571" cy="160.604" r="3" transform="rotate(-60 252.571 160.604)" fill="#F1F1F1"/>
<circle cx="263.571" cy="141.551" r="3" transform="rotate(-60 263.571 141.551)" fill="#F1F1F1"/>
<circle cx="274.571" cy="122.498" r="3" transform="rotate(-60 274.571 122.498)" fill="#F1F1F1"/>
<circle cx="285.571" cy="103.446" r="3" transform="rotate(-60 285.571 103.446)" fill="#F1F1F1"/>
<circle cx="194.624" cy="304.972" r="3" transform="rotate(-60 194.624 304.972)" fill="#F1F1F1"/>
<circle cx="205.624" cy="285.919" r="3" transform="rotate(-60 205.624 285.919)" fill="#F1F1F1"/>
<circle cx="216.624" cy="266.866" r="3" transform="rotate(-60 216.624 266.866)" fill="#F1F1F1"/>
<circle cx="227.624" cy="247.814" r="3" transform="rotate(-60 227.624 247.814)" fill="#F1F1F1"/>
<circle cx="238.624" cy="228.761" r="3" transform="rotate(-60 238.624 228.761)" fill="#F1F1F1"/>
<circle cx="249.624" cy="209.709" r="3" transform="rotate(-60 249.624 209.709)" fill="#F1F1F1"/>
<circle cx="260.624" cy="190.656" r="3" transform="rotate(-60 260.624 190.656)" fill="#F1F1F1"/>
<circle cx="271.624" cy="171.604" r="3" transform="rotate(-60 271.624 171.604)" fill="#F1F1F1"/>
<circle cx="282.624" cy="152.551" r="3" transform="rotate(-60 282.624 152.551)" fill="#F1F1F1"/>
<circle cx="293.624" cy="133.498" r="3" transform="rotate(-60 293.624 133.498)" fill="#F1F1F1"/>
<circle cx="304.624" cy="114.446" r="3" transform="rotate(-60 304.624 114.446)" fill="#F1F1F1"/>
</svg>
