<svg width="42" height="30" viewBox="0 0 42 30" fill="none" xmlns="http://www.w3.org/2000/svg">
<path d="M36.9331 4.37974C34.6267 3.41236 32.3185 3.04431 30.0115 3.04431C22.6881 3.04372 15.3652 6.75094 8.04172 6.75094C6.20506 6.75094 4.36958 6.51786 2.53292 5.93517C2.3266 5.86977 2.11969 5.83885 1.91753 5.83885C0.894251 5.83885 0 6.63083 0 7.73021V26.5939C0 27.3449 0.429883 28.0566 1.12019 28.3456C3.42658 29.3135 5.73474 29.6816 8.04172 29.6816C15.3652 29.6816 22.6887 25.9744 30.0121 25.9744C31.8488 25.9744 33.6843 26.2074 35.5209 26.7901C35.7272 26.8555 35.9342 26.8865 36.1363 26.8865C37.1596 26.8865 38.0538 26.0945 38.0538 24.9951V6.13198C38.0533 5.38042 37.6234 4.6693 36.9331 4.37974ZM19.0266 22.0709C16.3992 22.0709 14.27 19.5148 14.27 16.3629C14.27 13.2105 16.3998 10.655 19.0266 10.655C21.6535 10.655 23.7833 13.2105 23.7833 16.3629C23.7833 19.516 21.6529 22.0709 19.0266 22.0709Z" fill="#1F3661"/>
<rect x="15.5706" y="5.83899" width="14.5975" height="14.5975" fill="#EEEEEE"/>
<path d="M39.9772 1.33543C37.6709 0.368046 35.3627 7.15139e-08 33.0557 7.15139e-08C25.7323 -0.000594511 18.4094 3.70662 11.0859 3.70662C9.24925 3.70662 7.41377 3.47355 5.57711 2.89086C5.37079 2.82545 5.16387 2.79454 4.96172 2.79454C3.93844 2.79454 3.04419 3.58652 3.04419 4.6859V23.5496C3.04419 24.3006 3.47407 25.0123 4.16438 25.3013C6.47077 26.2692 8.77893 26.6373 11.0859 26.6373C18.4094 26.6373 25.7328 22.9301 33.0563 22.9301C34.893 22.9301 36.7285 23.1631 38.5651 23.7458C38.7714 23.8112 38.9784 23.8421 39.1805 23.8421C40.2038 23.8421 41.098 23.0502 41.098 21.9508V3.08766C41.0974 2.33611 40.6676 1.62499 39.9772 1.33543ZM22.0708 19.0266C19.4434 19.0266 17.3142 16.4705 17.3142 13.3186C17.3142 10.1662 19.444 7.61065 22.0708 7.61065C24.6977 7.61065 26.8275 10.1662 26.8275 13.3186C26.8275 16.4717 24.6971 19.0266 22.0708 19.0266Z" fill="url(#paint0_linear_338_1880)"/>
<defs>
<linearGradient id="paint0_linear_338_1880" x1="-9" y1="27" x2="48.5" y2="13" gradientUnits="userSpaceOnUse">
<stop stop-color="#8957DB"/>
<stop offset="0.510417" stop-color="#4478CC"/>
<stop offset="1" stop-color="#0498D4"/>
</linearGradient>
</defs>
</svg>
