<svg width="43" height="31" viewBox="0 0 43 31" fill="none" xmlns="http://www.w3.org/2000/svg">
<path d="M37.231 4.81071C34.9246 3.84333 32.6165 3.47528 30.3095 3.47528C22.986 3.47469 15.6632 7.18191 8.3397 7.18191C6.50303 7.18191 4.66756 6.94883 2.83089 6.36614C2.62457 6.30073 2.41766 6.26982 2.2155 6.26982C1.19223 6.26982 0.297974 7.0618 0.297974 8.16118V27.0249C0.297974 27.7759 0.727857 28.4876 1.41817 28.7765C3.72455 29.7445 6.03272 30.1126 8.3397 30.1126C15.6632 30.1126 22.9866 26.4053 30.3101 26.4053C32.1468 26.4053 33.9822 26.6384 35.8189 27.2211C36.0252 27.2865 36.2321 27.3174 36.4343 27.3174C37.4576 27.3174 38.3518 26.5254 38.3518 25.4261V6.56295C38.3512 5.81139 37.9213 5.10027 37.231 4.81071ZM19.3246 22.5019C16.6971 22.5019 14.5679 19.9458 14.5679 16.7939C14.5679 13.6414 16.6977 11.0859 19.3246 11.0859C21.9515 11.0859 24.0813 13.6414 24.0813 16.7939C24.0813 19.947 21.9509 22.5019 19.3246 22.5019Z" fill="#00B2FF"/>
<path d="M15.8685 6.26993H30.466V20.8674H15.8685V6.26993Z" fill="#E5E5E5"/>
<path d="M41.0734 1.58546C38.7671 0.618077 36.4589 0.250031 34.1519 0.250031C26.8284 0.249436 19.5056 3.95666 12.1821 3.95666C10.3454 3.95666 8.50996 3.72358 6.6733 3.14089C6.46698 3.07548 6.26007 3.04457 6.05791 3.04457C5.03463 3.04457 4.14038 3.83655 4.14038 4.93593V23.7996C4.14038 24.5506 4.57026 25.2623 5.26057 25.5513C7.56696 26.5193 9.87512 26.8873 12.1821 26.8873C19.5056 26.8873 26.829 23.1801 34.1525 23.1801C35.9892 23.1801 37.8246 23.4132 39.6613 23.9959C39.8676 24.0613 40.0745 24.0922 40.2767 24.0922C41.3 24.0922 42.1942 23.3002 42.1942 22.2008V3.3377C42.1936 2.58614 41.7638 1.87502 41.0734 1.58546ZM23.167 19.2767C20.5395 19.2767 18.4104 16.7205 18.4104 13.5687C18.4104 10.4162 20.5401 7.86068 23.167 7.86068C25.7939 7.86068 27.9237 10.4162 27.9237 13.5687C27.9237 16.7217 25.7933 19.2767 23.167 19.2767Z" fill="#9677C8"/>
</svg>
