<svg width="43" height="31" viewBox="0 0 43 31" fill="none" xmlns="http://www.w3.org/2000/svg">
<path d="M37.9168 4.81071C35.6104 3.84333 33.3023 3.47528 30.9953 3.47528C23.6718 3.47469 16.349 7.18191 9.02549 7.18191C7.18882 7.18191 5.35335 6.94883 3.51668 6.36614C3.31036 6.30073 3.10345 6.26982 2.90129 6.26982C1.87802 6.26982 0.983765 7.0618 0.983765 8.16118V27.0249C0.983765 27.7759 1.41365 28.4876 2.10396 28.7765C4.41034 29.7445 6.71851 30.1126 9.02549 30.1126C16.349 30.1126 23.6724 26.4053 30.9959 26.4053C32.8326 26.4053 34.668 26.6384 36.5047 27.2211C36.711 27.2865 36.9179 27.3174 37.1201 27.3174C38.1434 27.3174 39.0376 26.5254 39.0376 25.4261V6.56295C39.037 5.81139 38.6071 5.10027 37.9168 4.81071ZM20.0104 22.5019C17.3829 22.5019 15.2537 19.9458 15.2537 16.7939C15.2537 13.6414 17.3835 11.0859 20.0104 11.0859C22.6373 11.0859 24.767 13.6414 24.767 16.7939C24.767 19.947 22.6367 22.5019 20.0104 22.5019Z" fill="#33C2FF"/>
<rect x="16.5543" y="6.26993" width="14.5975" height="14.5975" fill="#FAFAFA"/>
<path d="M41.7592 1.58546C39.4528 0.618077 37.1447 0.250031 34.8377 0.250031C27.5142 0.249436 20.1914 3.95666 12.8679 3.95666C11.0312 3.95666 9.19576 3.72358 7.35909 3.14089C7.15277 3.07548 6.94586 3.04457 6.7437 3.04457C5.72042 3.04457 4.82617 3.83655 4.82617 4.93593V23.7996C4.82617 24.5506 5.25605 25.2623 5.94636 25.5513C8.25275 26.5193 10.5609 26.8873 12.8679 26.8873C20.1914 26.8873 27.5148 23.1801 34.8383 23.1801C36.675 23.1801 38.5104 23.4132 40.3471 23.9959C40.5534 24.0613 40.7603 24.0922 40.9625 24.0922C41.9858 24.0922 42.88 23.3002 42.88 22.2008V3.3377C42.8794 2.58614 42.4495 1.87502 41.7592 1.58546ZM23.8528 19.2767C21.2253 19.2767 19.0961 16.7205 19.0961 13.5687C19.0961 10.4162 21.2259 7.86068 23.8528 7.86068C26.4797 7.86068 28.6095 10.4162 28.6095 13.5687C28.6095 16.7217 26.4791 19.2767 23.8528 19.2767Z" fill="#9677C8"/>
</svg>
