<svg width="43" height="30" viewBox="0 0 43 30" fill="none" xmlns="http://www.w3.org/2000/svg">
<path d="M37.231 4.57991C34.9246 3.61252 32.6165 3.24448 30.3095 3.24448C22.986 3.24388 15.6632 6.9511 8.3397 6.9511C6.50303 6.9511 4.66756 6.71802 2.83089 6.13533C2.62457 6.06993 2.41766 6.03901 2.2155 6.03901C1.19223 6.03901 0.297974 6.831 0.297974 7.93038V26.7941C0.297974 27.545 0.727857 28.2568 1.41817 28.5457C3.72455 29.5137 6.03272 29.8818 8.3397 29.8818C15.6632 29.8818 22.9866 26.1745 30.3101 26.1745C32.1468 26.1745 33.9822 26.4076 35.8189 26.9903C36.0252 27.0557 36.2321 27.0866 36.4343 27.0866C37.4576 27.0866 38.3518 26.2946 38.3518 25.1953V6.33214C38.3512 5.58059 37.9213 4.86947 37.231 4.57991ZM19.3246 22.2711C16.6971 22.2711 14.5679 19.715 14.5679 16.5631C14.5679 13.4106 16.6977 10.8551 19.3246 10.8551C21.9515 10.8551 24.0813 13.4106 24.0813 16.5631C24.0813 19.7162 21.9509 22.2711 19.3246 22.2711Z" fill="#33C2FF"/>
<rect x="15.8685" y="6.03912" width="14.5975" height="14.5975" fill="#E5E5E5"/>
<path d="M41.0734 1.35466C38.7671 0.387272 36.4589 0.0192261 34.1519 0.0192261C26.8284 0.0186316 19.5056 3.72585 12.1821 3.72585C10.3454 3.72585 8.50996 3.49277 6.6733 2.91008C6.46698 2.84468 6.26007 2.81376 6.05791 2.81376C5.03463 2.81376 4.14038 3.60574 4.14038 4.70513V23.5688C4.14038 24.3198 4.57026 25.0315 5.26057 25.3205C7.56696 26.2885 9.87512 26.6565 12.1821 26.6565C19.5056 26.6565 26.829 22.9493 34.1525 22.9493C35.9892 22.9493 37.8246 23.1824 39.6613 23.7651C39.8676 23.8305 40.0745 23.8614 40.2767 23.8614C41.3 23.8614 42.1942 23.0694 42.1942 21.97V3.10689C42.1936 2.35534 41.7638 1.64422 41.0734 1.35466ZM23.167 19.0459C20.5395 19.0459 18.4104 16.4897 18.4104 13.3379C18.4104 10.1854 20.5401 7.62988 23.167 7.62988C25.7939 7.62988 27.9237 10.1854 27.9237 13.3379C27.9237 16.4909 25.7933 19.0459 23.167 19.0459Z" fill="#008FCC"/>
</svg>
