<svg width="43" height="30" viewBox="0 0 43 30" fill="none" xmlns="http://www.w3.org/2000/svg">
<path d="M37.9168 4.57991C35.6104 3.61252 33.3023 3.24448 30.9953 3.24448C23.6718 3.24388 16.349 6.9511 9.02549 6.9511C7.18882 6.9511 5.35335 6.71802 3.51668 6.13533C3.31036 6.06993 3.10345 6.03901 2.90129 6.03901C1.87802 6.03901 0.983765 6.831 0.983765 7.93038V26.7941C0.983765 27.545 1.41365 28.2568 2.10396 28.5457C4.41034 29.5137 6.71851 29.8818 9.02549 29.8818C16.349 29.8818 23.6724 26.1745 30.9959 26.1745C32.8326 26.1745 34.668 26.4076 36.5047 26.9903C36.711 27.0557 36.9179 27.0866 37.1201 27.0866C38.1434 27.0866 39.0376 26.2946 39.0376 25.1953V6.33214C39.037 5.58059 38.6071 4.86947 37.9168 4.57991ZM20.0104 22.2711C17.3829 22.2711 15.2537 19.715 15.2537 16.5631C15.2537 13.4106 17.3835 10.8551 20.0104 10.8551C22.6373 10.8551 24.767 13.4106 24.767 16.5631C24.767 19.7162 22.6367 22.2711 20.0104 22.2711Z" fill="#33C2FF"/>
<rect x="16.5543" y="6.03912" width="14.5975" height="14.5975" fill="#FAFAFA"/>
<path d="M41.7592 1.35466C39.4528 0.387272 37.1447 0.0192261 34.8377 0.0192261C27.5142 0.0186316 20.1914 3.72585 12.8679 3.72585C11.0312 3.72585 9.19576 3.49277 7.35909 2.91008C7.15277 2.84468 6.94586 2.81376 6.7437 2.81376C5.72042 2.81376 4.82617 3.60574 4.82617 4.70513V23.5688C4.82617 24.3198 5.25605 25.0315 5.94636 25.3205C8.25275 26.2885 10.5609 26.6565 12.8679 26.6565C20.1914 26.6565 27.5148 22.9493 34.8383 22.9493C36.675 22.9493 38.5104 23.1824 40.3471 23.7651C40.5534 23.8305 40.7603 23.8614 40.9625 23.8614C41.9858 23.8614 42.88 23.0694 42.88 21.97V3.10689C42.8794 2.35534 42.4495 1.64422 41.7592 1.35466ZM23.8528 19.0459C21.2253 19.0459 19.0961 16.4897 19.0961 13.3379C19.0961 10.1854 21.2259 7.62988 23.8528 7.62988C26.4797 7.62988 28.6095 10.1854 28.6095 13.3379C28.6095 16.4909 26.4791 19.0459 23.8528 19.0459Z" fill="#008FCC"/>
</svg>
