<svg width="43" height="30" viewBox="0 0 43 30" fill="none" xmlns="http://www.w3.org/2000/svg">
<path d="M37.231 4.69838C34.9246 3.73099 32.6165 3.36295 30.3095 3.36295C22.986 3.36235 15.6632 7.06957 8.3397 7.06957C6.50303 7.06957 4.66756 6.83649 2.83089 6.2538C2.62457 6.1884 2.41766 6.15748 2.2155 6.15748C1.19223 6.15748 0.297974 6.94946 0.297974 8.04885V26.9126C0.297974 27.6635 0.727857 28.3752 1.41817 28.6642C3.72455 29.6322 6.03272 30.0002 8.3397 30.0002C15.6632 30.0002 22.9866 26.293 30.3101 26.293C32.1468 26.293 33.9822 26.5261 35.8189 27.1088C36.0252 27.1742 36.2321 27.2051 36.4343 27.2051C37.4576 27.2051 38.3518 26.4131 38.3518 25.3137V6.45061C38.3512 5.69906 37.9213 4.98794 37.231 4.69838ZM19.3246 22.3896C16.6971 22.3896 14.5679 19.8335 14.5679 16.6816C14.5679 13.5291 16.6977 10.9736 19.3246 10.9736C21.9515 10.9736 24.0813 13.5291 24.0813 16.6816C24.0813 19.8347 21.9509 22.3896 19.3246 22.3896Z" fill="#009B60"/>
<rect x="15.8685" y="6.15759" width="14.5975" height="14.5975" fill="#E5E5E5"/>
<path d="M41.0734 1.47313C38.7671 0.505742 36.4589 0.137695 34.1519 0.137695C26.8284 0.137101 19.5056 3.84432 12.1821 3.84432C10.3454 3.84432 8.50996 3.61124 6.6733 3.02855C6.46698 2.96315 6.26007 2.93223 6.05791 2.93223C5.03463 2.93223 4.14038 3.72421 4.14038 4.8236V23.6873C4.14038 24.4383 4.57026 25.15 5.26057 25.4389C7.56696 26.4069 9.87512 26.775 12.1821 26.775C19.5056 26.775 26.829 23.0678 34.1525 23.0678C35.9892 23.0678 37.8246 23.3008 39.6613 23.8835C39.8676 23.9489 40.0745 23.9798 40.2767 23.9798C41.3 23.9798 42.1942 23.1879 42.1942 22.0885V3.22536C42.1936 2.47381 41.7638 1.76269 41.0734 1.47313ZM23.167 19.1643C20.5395 19.1643 18.4104 16.6082 18.4104 13.4563C18.4104 10.3039 20.5401 7.74835 23.167 7.74835C25.7939 7.74835 27.9237 10.3039 27.9237 13.4563C27.9237 16.6094 25.7933 19.1643 23.167 19.1643Z" fill="#005A2D"/>
</svg>
