<svg width="43" height="30" viewBox="0 0 43 30" fill="none" xmlns="http://www.w3.org/2000/svg">
<path d="M37.9168 4.69838C35.6104 3.73099 33.3023 3.36295 30.9953 3.36295C23.6718 3.36235 16.349 7.06957 9.02549 7.06957C7.18882 7.06957 5.35335 6.83649 3.51668 6.2538C3.31036 6.1884 3.10345 6.15748 2.90129 6.15748C1.87802 6.15748 0.983765 6.94946 0.983765 8.04885V26.9126C0.983765 27.6635 1.41365 28.3752 2.10396 28.6642C4.41034 29.6322 6.71851 30.0002 9.02549 30.0002C16.349 30.0002 23.6724 26.293 30.9959 26.293C32.8326 26.293 34.668 26.5261 36.5047 27.1088C36.711 27.1742 36.9179 27.2051 37.1201 27.2051C38.1434 27.2051 39.0376 26.4131 39.0376 25.3137V6.45061C39.037 5.69906 38.6071 4.98794 37.9168 4.69838ZM20.0104 22.3896C17.3829 22.3896 15.2537 19.8335 15.2537 16.6816C15.2537 13.5291 17.3835 10.9736 20.0104 10.9736C22.6373 10.9736 24.767 13.5291 24.767 16.6816C24.767 19.8347 22.6367 22.3896 20.0104 22.3896Z" fill="#5FC391"/>
<rect x="16.5543" y="6.15759" width="14.5975" height="14.5975" fill="#FAFAFA"/>
<path d="M41.7592 1.47313C39.4528 0.505742 37.1447 0.137695 34.8377 0.137695C27.5142 0.137101 20.1914 3.84432 12.8679 3.84432C11.0312 3.84432 9.19576 3.61124 7.35909 3.02855C7.15277 2.96315 6.94586 2.93223 6.7437 2.93223C5.72042 2.93223 4.82617 3.72421 4.82617 4.8236V23.6873C4.82617 24.4383 5.25605 25.15 5.94636 25.4389C8.25275 26.4069 10.5609 26.775 12.8679 26.775C20.1914 26.775 27.5148 23.0678 34.8383 23.0678C36.675 23.0678 38.5104 23.3008 40.3471 23.8835C40.5534 23.9489 40.7603 23.9798 40.9625 23.9798C41.9858 23.9798 42.88 23.1879 42.88 22.0885V3.22536C42.8794 2.47381 42.4495 1.76269 41.7592 1.47313ZM23.8528 19.1643C21.2253 19.1643 19.0961 16.6082 19.0961 13.4563C19.0961 10.3039 21.2259 7.74835 23.8528 7.74835C26.4797 7.74835 28.6095 10.3039 28.6095 13.4563C28.6095 16.6094 26.4791 19.1643 23.8528 19.1643Z" fill="#00864C"/>
</svg>
