<svg width="242" height="158" viewBox="0 0 242 158" fill="none" xmlns="http://www.w3.org/2000/svg">
<g opacity="0.5">
<path d="M92.7369 36.7337C92.7369 36.7337 98.4706 25.8799 106.707 32.9906C114.943 40.1012 121.52 29.0213 121.52 29.0213" stroke="#E5E5E5" stroke-width="3"/>
<path d="M121.426 29.0464C121.426 29.0464 127.16 18.1926 135.396 25.3032C143.632 32.4139 150.209 21.334 150.209 21.334" stroke="#E5E5E5" stroke-width="3"/>
<path d="M150.21 21.334C150.21 21.334 155.943 10.4802 164.179 17.5908C172.415 24.7015 178.993 13.6216 178.993 13.6216" stroke="#E5E5E5" stroke-width="3"/>
<path d="M178.899 13.6467C178.899 13.6467 184.633 2.79288 192.869 9.90353C201.105 17.0142 207.682 5.93427 207.682 5.93427" stroke="#E5E5E5" stroke-width="3"/>
<path d="M72.0414 75.4079C72.0414 75.4079 77.9106 64.5178 86.2459 71.6018C94.5812 78.6859 101.308 67.5659 101.308 67.5659" stroke="#E5E5E5" stroke-width="3"/>
<path d="M101.213 67.5914C101.213 67.5914 107.082 56.7013 115.417 63.7853C123.753 70.8694 130.48 59.7494 130.48 59.7494" stroke="#E5E5E5" stroke-width="3"/>
<path d="M130.48 59.7494C130.48 59.7494 136.349 48.8592 144.684 55.9433C153.02 63.0273 159.747 51.9073 159.747 51.9073" stroke="#E5E5E5" stroke-width="3"/>
<path d="M159.652 51.9329C159.652 51.9329 165.521 41.0428 173.856 48.1268C182.191 55.2109 188.918 44.0908 188.918 44.0908" stroke="#E5E5E5" stroke-width="3"/>
<path d="M53.2777 113.564C53.2777 113.564 59.1469 102.674 67.4822 109.758C75.8175 116.842 82.5446 105.722 82.5446 105.722" stroke="#E5E5E5" stroke-width="3"/>
<path d="M82.4493 105.748C82.4493 105.748 88.3185 94.8578 96.6537 101.942C104.989 109.026 111.716 97.9059 111.716 97.9059" stroke="#E5E5E5" stroke-width="3"/>
<path d="M111.716 97.9059C111.716 97.9059 117.585 87.0158 125.921 94.0998C134.256 101.184 140.983 90.0639 140.983 90.0639" stroke="#E5E5E5" stroke-width="3"/>
<path d="M140.888 90.0894C140.888 90.0894 146.757 79.1993 155.092 86.2833C163.428 93.3674 170.155 82.2474 170.155 82.2474" stroke="#E5E5E5" stroke-width="3"/>
<path d="M34.514 151.721C34.514 151.721 40.2477 140.867 48.4837 147.978C56.7197 155.089 63.2972 144.009 63.2972 144.009" stroke="#E5E5E5" stroke-width="3"/>
<path d="M63.2035 144.034C63.2035 144.034 68.9372 133.18 77.1732 140.291C85.4092 147.401 91.9867 136.321 91.9867 136.321" stroke="#E5E5E5" stroke-width="3"/>
<path d="M91.9866 136.321C91.9866 136.321 97.7203 125.467 105.956 132.578C114.192 139.689 120.77 128.609 120.77 128.609" stroke="#E5E5E5" stroke-width="3"/>
<path d="M120.676 128.634C120.676 128.634 126.41 117.78 134.646 124.891C142.882 132.001 149.459 120.922 149.459 120.922" stroke="#E5E5E5" stroke-width="3"/>
</g>
</svg>
